<svg width="106" height="106" viewBox="0 0 106 106" fill="none" xmlns="http://www.w3.org/2000/svg">
<g clip-path="url(#clip0_2985_8613)">
<circle cx="53" cy="53" r="52" stroke="#FDDBE2"/>
<circle cx="53" cy="53" r="49" fill="white" fill-opacity="0.7"/>
<circle cx="53" cy="53" r="49" fill="url(#paint0_linear_2985_8613)" fill-opacity="0.5"/>
<path d="M52.9998 32C52.216 32.0035 51.5803 32.6266 51.5767 33.395V59.4255L39.7242 47.8158C39.167 47.2733 38.2671 47.2733 37.7101 47.8158C37.1566 48.362 37.1566 49.2441 37.7101 49.7902L51.9853 63.7961H51.9871C52.2549 64.0604 52.6192 64.2092 52.9995 64.2092C53.3798 64.2092 53.744 64.0604 54.0118 63.7961V63.7926L68.2999 49.7902H68.2981C68.8534 49.2441 68.8534 48.362 68.2981 47.8159C68.0302 47.5534 67.6678 47.4046 67.2875 47.4046C66.9089 47.4046 66.5447 47.5534 66.2769 47.8159L54.4334 59.4153V33.3955C54.4316 33.0245 54.2799 32.6692 54.0103 32.4066C53.7424 32.1458 53.3782 31.9988 52.9997 32.0006L52.9998 32ZM34.432 55.8022C34.0535 55.8022 33.691 55.9492 33.4232 56.2118C33.1554 56.4743 33.0036 56.8296 33.0036 57.2024H33L33.0036 69.8045C33.0036 72.1079 34.9373 74 37.2853 74H68.72C71.0698 74 73 72.1079 73 69.8045V57.2024C73 56.8296 72.85 56.4743 72.5822 56.2118C72.3144 55.9492 71.9501 55.8022 71.5716 55.8022C70.7824 55.8022 70.1431 56.4288 70.1431 57.2024V69.8046C70.1431 70.6045 69.5361 71.21 68.7201 71.21H37.2853C36.4693 71.21 35.8622 70.6044 35.8622 69.8046L35.8587 57.2024H35.8605C35.8605 56.4288 35.2212 55.8022 34.432 55.8022Z" fill="url(#paint1_linear_2985_8613)"/>
<path d="M52.9998 32C52.216 32.0035 51.5803 32.6266 51.5767 33.395V59.4255L39.7242 47.8158C39.167 47.2733 38.2671 47.2733 37.7101 47.8158C37.1566 48.362 37.1566 49.2441 37.7101 49.7902L51.9853 63.7961H51.9871C52.2549 64.0604 52.6192 64.2092 52.9995 64.2092C53.3798 64.2092 53.744 64.0604 54.0118 63.7961V63.7926L68.2999 49.7902H68.2981C68.8534 49.2441 68.8534 48.362 68.2981 47.8159C68.0302 47.5534 67.6678 47.4046 67.2875 47.4046C66.9089 47.4046 66.5447 47.5534 66.2769 47.8159L54.4334 59.4153V33.3955C54.4316 33.0245 54.2799 32.6692 54.0103 32.4066C53.7424 32.1458 53.3782 31.9988 52.9997 32.0006L52.9998 32ZM34.432 55.8022C34.0535 55.8022 33.691 55.9492 33.4232 56.2118C33.1554 56.4743 33.0036 56.8296 33.0036 57.2024H33L33.0036 69.8045C33.0036 72.1079 34.9373 74 37.2853 74H68.72C71.0698 74 73 72.1079 73 69.8045V57.2024C73 56.8296 72.85 56.4743 72.5822 56.2118C72.3144 55.9492 71.9501 55.8022 71.5716 55.8022C70.7824 55.8022 70.1431 56.4288 70.1431 57.2024V69.8046C70.1431 70.6045 69.5361 71.21 68.7201 71.21H37.2853C36.4693 71.21 35.8622 70.6044 35.8622 69.8046L35.8587 57.2024H35.8605C35.8605 56.4288 35.2212 55.8022 34.432 55.8022Z" fill="url(#paint2_linear_2985_8613)"/>
<path d="M52.9998 32C52.216 32.0035 51.5803 32.6266 51.5767 33.395V59.4255L39.7242 47.8158C39.167 47.2733 38.2671 47.2733 37.7101 47.8158C37.1566 48.362 37.1566 49.2441 37.7101 49.7902L51.9853 63.7961H51.9871C52.2549 64.0604 52.6192 64.2092 52.9995 64.2092C53.3798 64.2092 53.744 64.0604 54.0118 63.7961V63.7926L68.2999 49.7902H68.2981C68.8534 49.2441 68.8534 48.362 68.2981 47.8159C68.0302 47.5534 67.6678 47.4046 67.2875 47.4046C66.9089 47.4046 66.5447 47.5534 66.2769 47.8159L54.4334 59.4153V33.3955C54.4316 33.0245 54.2799 32.6692 54.0103 32.4066C53.7424 32.1458 53.3782 31.9988 52.9997 32.0006L52.9998 32ZM34.432 55.8022C34.0535 55.8022 33.691 55.9492 33.4232 56.2118C33.1554 56.4743 33.0036 56.8296 33.0036 57.2024H33L33.0036 69.8045C33.0036 72.1079 34.9373 74 37.2853 74H68.72C71.0698 74 73 72.1079 73 69.8045V57.2024C73 56.8296 72.85 56.4743 72.5822 56.2118C72.3144 55.9492 71.9501 55.8022 71.5716 55.8022C70.7824 55.8022 70.1431 56.4288 70.1431 57.2024V69.8046C70.1431 70.6045 69.5361 71.21 68.7201 71.21H37.2853C36.4693 71.21 35.8622 70.6044 35.8622 69.8046L35.8587 57.2024H35.8605C35.8605 56.4288 35.2212 55.8022 34.432 55.8022Z" fill="#B50033"/>
</g>
<defs>
<linearGradient id="paint0_linear_2985_8613" x1="31.1385" y1="10.125" x2="53.6494" y2="101.841" gradientUnits="userSpaceOnUse">
<stop stop-color="#FFEAEA"/>
<stop offset="0.520833" stop-color="white"/>
<stop offset="1" stop-color="#FFEAEA"/>
</linearGradient>
<linearGradient id="paint1_linear_2985_8613" x1="53" y1="32" x2="53" y2="74" gradientUnits="userSpaceOnUse">
<stop stop-color="#F5F5F5"/>
<stop offset="0.475" stop-color="#F1BFBB"/>
<stop offset="1" stop-color="#FEFDFD"/>
</linearGradient>
<linearGradient id="paint2_linear_2985_8613" x1="37" y1="36.9219" x2="67.363" y2="69.1079" gradientUnits="userSpaceOnUse">
<stop stop-color="#513A03"/>
<stop offset="0.177083" stop-color="#986105" stop-opacity="0.928224"/>
<stop offset="0.421875" stop-color="#9D7107"/>
<stop offset="0.661413" stop-color="#CA870A" stop-opacity="0.481546"/>
<stop offset="1" stop-color="#533505"/>
</linearGradient>
<clipPath id="clip0_2985_8613">
<rect width="106" height="106" rx="53" fill="white"/>
</clipPath>
</defs>
</svg>
